<svg version="1.1" id="Layer_1" xmlns="http://www.w3.org/2000/svg" xmlns:xlink="http://www.w3.org/1999/xlink" viewBox="-5.12 -5.12 522.24 522.24" xml:space="preserve" width="50px" height="50px" fill="#000000"><g id="SVGRepo_bgCarrier" stroke-width="0"></g><g id="SVGRepo_tracerCarrier" stroke-linecap="round" stroke-linejoin="round"></g><g id="SVGRepo_iconCarrier"> <path style="fill:#ECEDEF;" d="M106.324,8.017c-9.446,0-17.102,7.656-17.102,17.102v461.762c0,9.446,7.656,17.102,17.102,17.102 h376.251c9.446,0,17.102-7.656,17.102-17.102V84.977l-76.96-76.96H106.324z"></path> <path style="fill:#D9DCDF;" d="M439.819,84.977h59.858l-76.96-76.96v59.858C422.717,77.319,430.373,84.977,439.819,84.977z"></path> <path style="fill:#C6CACF;" d="M397.063,196.142H89.222V42.221h307.841c4.722,0,8.551,3.829,8.551,8.551v136.818 C405.615,192.313,401.786,196.142,397.063,196.142z"></path> <polygon style="fill:#FFC44F;" points="388.512,179.04 12.262,179.04 80.671,110.63 12.262,42.221 388.512,42.221 "></polygon> <circle style="fill:#FF8C78;" cx="354.307" cy="290.205" r="59.858"></circle> <circle style="fill:#DB6B5E;" cx="354.307" cy="290.205" r="34.205"></circle> <polygon style="fill:#C4DF64;" points="405.615,461.228 166.182,461.228 166.182,256 "></polygon> <polygon style="fill:#8AC451;" points="191.836,435.574 191.836,277.988 166.182,256 166.182,461.228 405.615,461.228 375.686,435.574 "></polygon> <g> <rect x="397.062" y="375.716" style="fill:#3C9FE8;" width="34.205" height="34.205"></rect> <rect x="226.039" y="230.347" style="fill:#3C9FE8;" width="34.205" height="34.205"></rect> </g> <path d="M200.387,92.994c4.427,0,8.017-3.589,8.017-8.017c0-4.427-3.589-8.017-8.017-8.017h-34.205 c-4.427,0-8.017,3.589-8.017,8.017v51.307c0,4.427,3.589,8.017,8.017,8.017h34.205c4.427,0,8.017-3.589,8.017-8.017V110.63 c0-4.427-3.589-8.017-8.017-8.017h-8.551c-4.427,0-8.017,3.589-8.017,8.017c0,4.427,3.589,8.017,8.017,8.017h0.534v9.62h-18.171 V92.994H200.387z"></path> <path d="M242.608,136.284V84.977c0-4.427-3.589-8.017-8.017-8.017c-4.427,0-8.017,3.589-8.017,8.017v51.307 c0,4.427,3.589,8.017,8.017,8.017C239.019,144.301,242.608,140.711,242.608,136.284z"></path> <path d="M294.45,92.994c4.427,0,8.017-3.589,8.017-8.017c0-4.427-3.589-8.017-8.017-8.017h-25.653c-4.427,0-8.017,3.589-8.017,8.017 v51.307c0,4.427,3.589,8.017,8.017,8.017c4.427,0,8.017-3.589,8.017-8.017V118.62c0.177,0.012,0.354,0.027,0.534,0.027h17.102 c4.427,0,8.017-3.589,8.017-8.017c0-4.427-3.589-8.017-8.017-8.017h-17.102c-0.181,0-0.357,0.015-0.534,0.027v-9.647H294.45z"></path> <path d="M422.182,290.205c0-37.426-30.448-67.875-67.875-67.875s-67.875,30.448-67.875,67.875s30.448,67.875,67.875,67.875 S422.182,327.631,422.182,290.205z M302.466,290.205c0-28.585,23.256-51.841,51.841-51.841c28.585,0,51.841,23.256,51.841,51.841 s-23.256,51.841-51.841,51.841C325.722,342.046,302.466,318.79,302.466,290.205z"></path> <path d="M158.166,461.228c0,4.427,3.589,8.017,8.017,8.017h239.432c7.271,0,10.751-9.36,5.217-14.103L171.4,249.914 c-5.101-4.373-13.234-0.617-13.234,6.086L158.166,461.228L158.166,461.228z M174.199,273.43l209.744,179.78H174.199V273.43z"></path> <path d="M439.285,409.921v-34.205c0-4.427-3.589-8.017-8.017-8.017h-34.205c-4.427,0-8.017,3.589-8.017,8.017v34.205 c0,4.427,3.589,8.017,8.017,8.017h34.205C435.695,417.937,439.285,414.348,439.285,409.921z M423.251,401.904H405.08v-18.171h18.171 V401.904z"></path> <path d="M260.245,272.568c4.427,0,8.017-3.589,8.017-8.017v-34.205c0-4.427-3.589-8.017-8.017-8.017H226.04 c-4.427,0-8.017,3.589-8.017,8.017v34.205c0,4.427,3.589,8.017,8.017,8.017H260.245z M234.057,238.363h18.171v18.171h-18.171 V238.363z"></path> <path d="M499.677,426.489c4.427,0,8.017-3.589,8.017-8.017V84.977c0-2.1-0.863-4.184-2.348-5.668l-76.96-76.96 C426.899,0.863,424.817,0,422.716,0H106.323C92.473,0,81.204,11.268,81.204,25.119v9.086H12.261c-6.987,0-10.616,8.738-5.668,13.685 l62.741,62.741l-62.74,62.741c-4.947,4.947-1.32,13.685,5.668,13.685h68.944v299.825c0,13.851,11.268,25.119,25.119,25.119h376.251 c13.851,0,25.119-11.268,25.119-25.119v-34.205c0-4.427-3.589-8.017-8.017-8.017c-4.427,0-8.017,3.589-8.017,8.017v34.205 c0,5.01-4.076,9.086-9.086,9.086H106.324c-5.01,0-9.086-4.076-9.086-9.086V187.056h51.841c4.427,0,8.017-3.589,8.017-8.017 s-3.589-8.017-8.017-8.017H31.615l54.724-54.724c3.131-3.131,3.131-8.207,0-11.337L31.615,50.238h348.88v120.785H183.285 c-4.427,0-8.017,3.589-8.017,8.017s3.589,8.017,8.017,8.017h205.228c4.427,0,8.017-3.589,8.017-8.017V42.221 c0-4.427-3.589-8.017-8.017-8.017H97.239v-9.086c0-5.01,4.076-9.086,9.086-9.086H414.7v51.841c0,13.851,11.268,25.119,25.119,25.119 h51.841v325.478C491.66,422.9,495.25,426.489,499.677,426.489z M430.732,67.875V27.37l49.59,49.59h-40.505 C434.808,76.96,430.732,72.885,430.732,67.875z"></path> </g></svg>