<svg xmlns="http://www.w3.org/2000/svg" aria-label="SVG" role="img" viewBox="0 0 512 512" width="50px" height="50px" fill="#000000"><g id="SVGRepo_bgCarrier" stroke-width="0"></g><g id="SVGRepo_tracerCarrier" stroke-linecap="round" stroke-linejoin="round"></g><g id="SVGRepo_iconCarrier"> <rect width="512" height="512" rx="15%" fill="#ffffff"></rect> <path d="M122 157h268v99H122"></path> <g id="a" fill="#ffffff" stroke="#000000" stroke-width="24"> <circle cx="256" cy="120" r="44"></circle> <circle cx="120" cy="256" r="44"></circle> <circle cx="160" cy="160" r="44"></circle> </g> <use href="#a" transform="matrix(-1 0 0 1 512 0)"></use> <path stroke="#ffffff" stroke-width="44" d="M396 256H256l96-96-96 96V120v136l-96-96 96 96H116"></path> <path d="M64.1 256h384v170a22 22 0 01-22 22h-340a22 22 0 01-22-22V256"></path> <path fill="none" stroke="#ffffff" stroke-width="30" d="M292 264l-36 172-36-172m-29 55a35 35 0 10-35 35 35 35 0 11-35 35m270-70a35 35 0 00-35-35 35 35 0 00-35 35v70a35 35 0 0035 35 35 35 0 0035-35v-35h-35"></path> <path d="M64 256h384v12H64"></path> </g></svg>